<?xml version="1.0" standalone="no"?><!DOCTYPE svg PUBLIC "-//W3C//DTD SVG 1.1//EN" "http://www.w3.org/Graphics/SVG/1.1/DTD/svg11.dtd"><svg t="1559557637838" class="icon" style="" viewBox="0 0 1024 1024" version="1.1" xmlns="http://www.w3.org/2000/svg" p-id="2553" xmlns:xlink="http://www.w3.org/1999/xlink" width="200" height="200"><defs><style type="text/css"></style></defs><path d="M887.7 180.9H641.1c4.8-13.9 7.4-28.9 7.4-44.4C648.5 61.1 587.4 0 512 0S375.5 61.1 375.5 136.5c0 15.5 2.6 30.5 7.4 44.4H136.3c-50.2 0-90.8 40.7-90.8 90.8v661.4c0 50.2 40.7 90.8 90.8 90.8h751.4c50.2 0 90.8-40.7 90.8-90.8V271.8c0-50.2-40.6-90.9-90.8-90.9zM512 70c36.7 0 66.5 29.8 66.5 66.5 0 17.1-6.5 32.6-17 44.4h-98.9c-10.7-11.8-17.1-27.3-17.1-44.4 0-36.7 29.8-66.5 66.5-66.5z m396.5 863.2c0 11.5-9.4 20.8-20.8 20.8H136.3c-11.5 0-20.8-9.4-20.8-20.8V271.8c0-11.5 9.4-20.8 20.8-20.8h751.4c11.5 0 20.8 9.4 20.8 20.8v661.4z" p-id="2554"></path><path d="M747.3 569.5L477.8 839c-10.5 10.5-27.6 10.5-38.1 0l-87.1-87.1c-13.7-13.7-35.8-13.7-49.5 0s-13.7 35.8 0 49.5l87.1 87.1c18.9 18.9 43.7 28.3 68.5 28.3s49.6-9.4 68.5-28.3L796.8 619c13.7-13.7 13.7-35.8 0-49.5s-35.8-13.7-49.5 0zM307.3 434.9h409.4c19.3 0 35-15.7 35-35s-15.7-35-35-35H307.3c-19.3 0-35 15.7-35 35s15.7 35 35 35zM580.8 624.8c19.3 0 35-15.7 35-35s-15.7-35-35-35H313.3c-19.3 0-35 15.7-35 35s15.7 35 35 35h267.5z" p-id="2555"></path></svg>