<?xml version="1.0" standalone="no"?><!DOCTYPE svg PUBLIC "-//W3C//DTD SVG 1.1//EN" "http://www.w3.org/Graphics/SVG/1.1/DTD/svg11.dtd"><svg t="1559556548489" class="icon" style="" viewBox="0 0 1024 1024" version="1.1" xmlns="http://www.w3.org/2000/svg" p-id="6396" xmlns:xlink="http://www.w3.org/1999/xlink" width="200" height="200"><defs><style type="text/css"></style></defs><path d="M869.12 85.333333H221.44c-23.893333 0-43.093333 19.2-43.093333 42.666667v773.12c0.426667 23.466667 29.013333 34.56 45.653333 18.346667l84.48-87.893334c11.093333-11.093333 29.44-10.24 39.68 1.706667L410.026667 904.533333c10.24 11.946667 28.586667 12.373333 39.68 1.706667L524.8 832c11.093333-11.093333 29.44-10.24 39.68 1.706667l61.866667 71.253333c10.24 11.946667 28.586667 12.373333 39.68 1.706667l75.093333-74.24c11.093333-11.093333 29.44-10.24 39.68 1.706666l80.213333 83.626667c9.813333 11.093333 26.88 12.8 37.973334 2.986667 8.533333-7.68 14.08-18.773333 14.08-31.573334V128c-0.853333-23.466667-20.053333-42.666667-43.946667-42.666667z m-187.306667 546.133334h-273.066666c-18.773333 0-34.133333-15.36-34.133334-34.133334s15.36-34.133333 34.133334-34.133333h273.066666c18.773333 0 34.133333 15.36 34.133334 34.133333s-15.36 34.133333-34.133334 34.133334z m0-153.6h-273.066666c-18.773333 0-34.133333-15.36-34.133334-34.133334s15.36-34.133333 34.133334-34.133333h273.066666c18.773333 0 34.133333 15.36 34.133334 34.133333s-15.36 34.133333-34.133334 34.133334z m0-153.6h-273.066666c-18.773333 0-34.133333-15.36-34.133334-34.133334s15.36-34.133333 34.133334-34.133333h273.066666c18.773333 0 34.133333 15.36 34.133334 34.133333s-15.36 34.133333-34.133334 34.133334z" fill="#4C4C4C" p-id="6397"></path></svg>