<?xml version="1.0" standalone="no"?><!DOCTYPE svg PUBLIC "-//W3C//DTD SVG 1.1//EN" "http://www.w3.org/Graphics/SVG/1.1/DTD/svg11.dtd"><svg t="1556547265907" class="icon" style="" viewBox="0 0 1024 1024" version="1.1" xmlns="http://www.w3.org/2000/svg" p-id="3173" xmlns:xlink="http://www.w3.org/1999/xlink" width="200" height="200"><defs><style type="text/css"></style></defs><path d="M876.584044 764.755608c-57.06774-42.887786-89.817632-108.389616-89.817632-179.739641L786.766412 435.300131c0-125.422548-84.508719-231.471862-199.621457-264.101004L587.144956 135.867434c0-41.279149-33.580816-74.857918-74.857918-74.857918-41.281195 0-74.857918 33.57877-74.857918 74.857918l0 35.332716c-115.093295 32.67826-199.621457 138.678456-199.621457 264.101004L237.807662 585.01699c0 71.350025-32.726356 136.802736-89.822748 179.739641-8.599865 6.432503-12.085246 17.641799-8.699126 27.827789 3.412726 10.183943 12.939707 17.057491 23.663956 17.057491l227.057319 0c-1.63422 8.187473-2.535753 16.521279-2.535753 24.952298 0 68.766177 55.998385 124.764562 124.763538 124.764562s124.764562-55.998385 124.764562-124.764562c0-8.381901-0.827855-16.764825-2.485611-24.952298l227.060389 0c10.722202 0 20.22667-6.873548 23.638373-17.057491 3.412726-10.18599-0.099261-21.395286-8.676613-27.827789L876.584044 764.756631 876.584044 764.755608zM487.332692 135.867434c0-13.767562 11.18269-24.952298 24.952298-24.952298 13.765515 0 24.953322 11.18576 24.953322 24.952298l0 26.098401c-8.237615-0.756223-16.522302-1.146103-24.953322-1.146103-8.433066 0-16.7198 0.388856-24.952298 1.146103L487.332692 135.867434 487.332692 135.867434zM587.142909 834.544067c0 41.279149-33.580816 74.857918-74.857918 74.857918-41.281195 0-74.856895-33.57877-74.856895-74.857918 0-8.528234 1.483794-16.960277 4.285606-24.952298l141.139507 0C585.677535 817.58379 587.142909 826.015833 587.142909 834.544067zM224.935494 759.687172c12.719696-15.402805 23.810289-32.261775 32.872688-49.954739 19.859303-38.841633 29.901007-80.803327 29.901007-124.71442L287.709189 435.300131c0-123.81391 100.759845-224.574778 224.574778-224.574778 123.788328 0 224.574778 100.760868 224.574778 224.574778L736.858746 585.01699c0 43.911092 10.086729 85.872786 29.922497 124.71442 9.066493 17.791202 20.128433 34.55398 32.849152 49.954739L224.889445 759.686149 224.935494 759.687172 224.935494 759.687172z" p-id="3174"></path></svg>