<?xml version="1.0" standalone="no"?><!DOCTYPE svg PUBLIC "-//W3C//DTD SVG 1.1//EN" "http://www.w3.org/Graphics/SVG/1.1/DTD/svg11.dtd"><svg t="1558094753919" class="icon" style="" viewBox="0 0 1024 1024" version="1.1" xmlns="http://www.w3.org/2000/svg" p-id="12755" xmlns:xlink="http://www.w3.org/1999/xlink" width="200" height="200"><defs><style type="text/css"></style></defs><path d="M770.863 828.854c0 22.056-17.944 40-40 40H632.42l-17.553 60h115.996c55.228 0 100-44.772 100-100V686.976l-60 57.149v84.729zM176.645 828.854V390.092l186.276-186.643c11.343-11.365 10.97-29.879-0.821-40.778l-41.29-38.167h410.053c22.056 0 40 17.944 40 40v252.249l60-57.149v-195.1c0-55.228-44.772-100-100-100H255.9l-1.232-1.139-0.272 1.139h-1.875L116.645 377.635v451.219c0 55.228 44.772 100 100 100h120.853l17.553-60H216.645c-22.056 0-40-17.944-40-40z" p-id="12756"></path><path d="M713.558 349.529c0-16.568-13.432-30-30-30H310.494c-16.568 0-30 13.432-30 30s13.432 30 30 30h373.064c16.568 0 30-13.432 30-30zM652.621 479.085c0-16.568-13.432-30-30-30H310.494c-16.568 0-30 13.432-30 30s13.432 30 30 30h312.127c16.569 0 30-13.432 30-30zM310.494 578.64c-16.568 0-30 13.432-30 30s13.432 30 30 30h219.392c16.568 0 30-13.432 30-30s-13.432-30-30-30H310.494zM892.188 496.374l-44.141-43.457c-5.074-4.675-10.775-8.321-17.156-10.992-6.381-2.621-12.866-3.956-19.403-3.956-6.537 0-13.127 1.284-19.666 3.905-6.537 2.62-12.186 6.266-16.998 10.941L495.746 726.309l116.595 116.595 279.794-274.153c10.094-9.915 15.219-21.985 15.219-36.164 0.001-14.176-5.072-26.248-15.166-36.213zM418.551 801.961L376.45 939.986l-6.695 20.649 168.304-44.946 42.174-41.324-116.592-116.593z" p-id="12757"></path></svg>