<?xml version="1.0" standalone="no"?><!DOCTYPE svg PUBLIC "-//W3C//DTD SVG 1.1//EN" "http://www.w3.org/Graphics/SVG/1.1/DTD/svg11.dtd"><svg t="1560596084597" class="icon" style="" viewBox="0 0 1066 1024" version="1.1" xmlns="http://www.w3.org/2000/svg" p-id="3464" xmlns:xlink="http://www.w3.org/1999/xlink" width="208.203125" height="200"><defs><style type="text/css"></style></defs><path d="M802.191355 1024a99.46576 99.46576 0 0 1-45.75425-11.438562L533.136474 895.191841l-222.803303 117.369597a99.46576 99.46576 0 0 1-142.733365-103.444391l42.770277-248.6644L29.839728 484.398252a99.46576 99.46576 0 0 1 54.208839-167.102477l248.6644-36.305003L447.59592 54.706168a99.46576 99.46576 0 0 1 176.054396 0l111.401651 225.787275 248.6644 36.305003a99.46576 99.46576 0 0 1 54.208839 167.599806l-180.530354 176.054395 42.770277 248.6644a99.46576 99.46576 0 0 1-96.481788 114.882953zM533.136474 72.610005a24.86644 24.86644 0 0 0-22.877125 14.422535L389.90578 329.728995A36.305002 36.305002 0 0 1 363.050024 348.13016l-268.557552 38.791647a25.861098 25.861098 0 0 0-14.422535 44.262263l193.958232 189.482273a36.305002 36.305002 0 0 1 10.443905 31.829043l-45.75425 267.065566a25.861098 25.861098 0 0 0 37.29966 27.353084l240.209811-126.321515a36.305002 36.305002 0 0 1 33.818358 0l240.209811 126.321515a25.861098 25.861098 0 0 0 37.29966-27.353084l-45.75425-267.065566a36.305002 36.305002 0 0 1 10.443905-31.829043l193.958232-189.482273a25.861098 25.861098 0 0 0-14.422535-44.262263L703.720253 348.13016a36.305002 36.305002 0 0 1-27.353084-19.893152l-119.856241-241.204468a24.86644 24.86644 0 0 0-23.374454-14.422535z" fill="#515151" p-id="3465"></path></svg>