<?xml version="1.0" standalone="no"?><!DOCTYPE svg PUBLIC "-//W3C//DTD SVG 1.1//EN" "http://www.w3.org/Graphics/SVG/1.1/DTD/svg11.dtd"><svg t="1560595917712" class="icon" style="" viewBox="0 0 1025 1024" version="1.1" xmlns="http://www.w3.org/2000/svg" p-id="1977" xmlns:xlink="http://www.w3.org/1999/xlink" width="200.1953125" height="200"><defs><style type="text/css"></style></defs><path d="M895.40992 318.72 628.52992 317.44 540.84992 45.44c0-0.64-0.64-0.64-0.64-1.92C529.32992 14.72 504.36992 0 479.40992 0 454.44992 0 429.48992 14.72 418.60992 43.52c0 0.64-0.64 0.64-0.64 1.92L330.28992 317.44 63.40992 318.72C1.96992 320-22.99008 397.44 25.64992 436.48l213.12 168.96-77.44 266.88C147.24992 919.04 183.08992 960 223.40992 960c12.16 0 24.96-3.84 36.48-12.16l219.52-160 219.52 160C710.44992 956.16 723.24992 960 735.40992 960c39.68 0 75.52-40.32 61.44-87.68l-77.44-266.88 213.12-168.96C981.16992 397.44 956.84992 320 895.40992 318.72zM678.44992 548.48c-23.04 17.92-32.64 48.64-24.32 77.44l74.24 256.64L518.44992 728.96c-11.52-8.32-25.6-12.8-39.04-12.8-13.44 0-27.52 4.48-39.04 12.8l-210.56 152.96 74.24-256.64c8.32-28.8-1.28-59.52-24.32-77.44L75.56992 384l256 0.64C359.72992 384 385.32992 364.8 394.28992 336.64l84.48-259.2 84.48 257.28C573.48992 362.88 598.44992 382.08 627.24992 382.72l257.92-0.64L678.44992 548.48z" p-id="1978"></path></svg>