<?xml version="1.0" standalone="no"?><!DOCTYPE svg PUBLIC "-//W3C//DTD SVG 1.1//EN" "http://www.w3.org/Graphics/SVG/1.1/DTD/svg11.dtd"><svg t="1559962839045" class="icon" style="" viewBox="0 0 1024 1024" version="1.1" xmlns="http://www.w3.org/2000/svg" p-id="8419" xmlns:xlink="http://www.w3.org/1999/xlink" width="200" height="200"><defs><style type="text/css"></style></defs><path d="M844.231111 391.39555600000006H659.9111109999999c-13.653333-2.275556-18.204444-15.928889-20.48-22.755556V202.52444400000002c0-45.511111-36.408889-81.92-81.92-81.92-40.96 0-75.093333 31.857778-81.92 70.542223-25.031111 157.013333-120.604444 209.351111-182.044444 225.28 2.275556 6.826667 2.275556 11.377778 2.275555 15.928889v441.457777c0 9.102222-2.275556 18.204444-6.826666 27.306666999999997h446.008888c43.235556-9.102222 72.817778-25.031111 93.297778-68.266667l93.297778-327.68c18.204444-59.16444400000001-11.377778-116.053333-77.368889-113.77777699999999zM257.137778 876.0888889999999V432.355556c0-13.653333-18.204444-25.031111-38.684445-25.031112H157.013333c-31.857778 0-59.16444400000001 27.306666999999997-59.16444400000001 59.16444500000001v373.191111c0 34.133333 25.031111 61.44 59.16444400000001 61.44h61.44c20.48 0 38.684444-11.377778 38.684445-25.031111z m0 0" fill="" p-id="8420"></path></svg>