<?xml version="1.0" standalone="no"?><!DOCTYPE svg PUBLIC "-//W3C//DTD SVG 1.1//EN" "http://www.w3.org/Graphics/SVG/1.1/DTD/svg11.dtd"><svg t="1560596093790" class="icon" style="" viewBox="0 0 1024 1024" version="1.1" xmlns="http://www.w3.org/2000/svg" p-id="3584" xmlns:xlink="http://www.w3.org/1999/xlink" width="200" height="200"><defs><style type="text/css"></style></defs><path d="M512.37168 32c-27.696 0-53.536 16.448-66.512 42.064l-118.16 238.016-264.032 47.632c-29.568 3.728-51.648 23.744-60.88 51.2-7.36 25.616 0 56.8 20.352 76.96L213.28368 663.84l-49.92 256.352c-5.472 27.456 7.36 56.784 29.584 73.232 12.4 9.296 27.84 13.872 43.136 13.872 11.968 0 23.808-2.848 34.336-8.432l241.952-119.024 240.064 119.024c11.12 5.44 23.952 9.152 35.056 9.152 16.592 0 31.456-5.44 42.432-14.592 22.208-16.448 35.04-43.92 29.568-73.232L811.44368 663.84 1001.60368 486.176c20.336-20.176 27.696-49.504 18.464-76.96-7.36-27.472-31.456-47.632-59.152-51.216l-264.016-45.76L578.72368 74.176C567.76368 48.592 540.06768 32 512.37168 32z" p-id="3585"></path></svg>