<?xml version="1.0" standalone="no"?><!DOCTYPE svg PUBLIC "-//W3C//DTD SVG 1.1//EN" "http://www.w3.org/Graphics/SVG/1.1/DTD/svg11.dtd"><svg t="1559978546010" class="icon" style="" viewBox="0 0 1024 1024" version="1.1" xmlns="http://www.w3.org/2000/svg" p-id="9273" xmlns:xlink="http://www.w3.org/1999/xlink" width="200" height="200"><defs><style type="text/css"></style></defs><path d="M512 998.4c-19.2 0-38.4-12.8-38.4-19.2C454.4 966.4 128 640 83.2 595.2 32 537.6 0 467.2 0 396.8s32-147.2 83.2-198.4c51.2-51.2 121.6-83.2 198.4-83.2 76.8 0 147.2 32 198.4 83.2C492.8 211.2 505.6 224 512 236.8c6.4-12.8 19.2-25.6 32-38.4 51.2-51.2 121.6-83.2 198.4-83.2 76.8 0 147.2 32 198.4 83.2C992 249.6 1024 320 1024 396.8c0 76.8-32 147.2-83.2 198.4C896 640 569.6 966.4 550.4 979.2 550.4 985.6 531.2 998.4 512 998.4z" p-id="9274"></path></svg>