<?xml version="1.0" standalone="no"?><!DOCTYPE svg PUBLIC "-//W3C//DTD SVG 1.1//EN" "http://www.w3.org/Graphics/SVG/1.1/DTD/svg11.dtd"><svg t="1560596016966" class="icon" style="" viewBox="0 0 1025 1024" version="1.1" xmlns="http://www.w3.org/2000/svg" p-id="3348" xmlns:xlink="http://www.w3.org/1999/xlink" width="200.1953125" height="200"><defs><style type="text/css"></style></defs><path d="M895.40992 318.72 628.52992 317.44 540.84992 45.44c0-0.64-0.64-0.64-0.64-1.92C529.32992 14.72 504.36992 0 479.40992 0 454.44992 0 429.48992 14.72 418.60992 43.52c0 0.64-0.64 0.64-0.64 1.92L330.28992 317.44 63.40992 318.72C1.96992 320-22.99008 397.44 25.64992 436.48l213.12 168.96-77.44 266.88C147.24992 919.04 183.08992 960 223.40992 960c12.16 0 24.96-3.84 36.48-12.16l219.52-160 219.52 160C710.44992 956.16 723.24992 960 735.40992 960c39.68 0 75.52-40.32 61.44-87.68l-77.44-266.88 213.12-168.96C981.80992 397.44 956.84992 320 895.40992 318.72z" p-id="3349"></path></svg>