<?xml version="1.0" standalone="no"?><!DOCTYPE svg PUBLIC "-//W3C//DTD SVG 1.1//EN" "http://www.w3.org/Graphics/SVG/1.1/DTD/svg11.dtd"><svg t="1558094728946" class="icon" style="" viewBox="0 0 1024 1024" version="1.1" xmlns="http://www.w3.org/2000/svg" p-id="12381" xmlns:xlink="http://www.w3.org/1999/xlink" width="200" height="200"><defs><style type="text/css"></style></defs><path d="M1005.629304 712.3634a62.992554 62.992554 0 0 0-42.984359-16.682025c-16.067963 0-31.470691 6.089451-42.882015 16.682025l-189.694068 177.61751-81.465594-76.348408a62.787867 62.787867 0 0 0-43.086702-16.682025c-16.067963 0-31.470691 5.987107-42.882015 16.682025a54.395682 54.395682 0 0 0 0 80.442157l118.616361 111.042926c12.946479 12.076558 30.549598 18.882415 48.971466 18.882415 18.268352 0 35.871471-6.805857 48.766778-18.882415l226.69132-212.260856a54.498026 54.498026 0 0 0-0.051172-80.493329z" p-id="12382"></path><path d="M389.724851 923.037929c0-169.122982 147.016741-306.110039 328.472141-306.110039 5.219529 0 10.387887 0.511719 15.505072 0.716406a477.024037 477.024037 0 0 0-83.973015-46.259358 406.406876 406.406876 0 0 0-16.682025-6.9082c109.814802-49.790215 179.510869-153.515566 179.203838-267.270601C812.250862 133.405027 670.555994 0.56289 495.650592 0.56289S178.947979 133.405027 178.947979 297.206137c-0.102344 104.23707 58.489431 201.003048 154.334316 254.784668-19.189446 5.219529-37.969517 11.411324-56.493729 18.677727l-0.921093 0.409375C107.972615 640.620459-0.153516 795.92704 0 967.148069V1024h408.300235a286.25536 286.25536 0 0 1-18.575384-100.962071z" p-id="12383"></path></svg>