<?xml version="1.0" standalone="no"?><!DOCTYPE svg PUBLIC "-//W3C//DTD SVG 1.1//EN" "http://www.w3.org/Graphics/SVG/1.1/DTD/svg11.dtd"><svg t="1558094749604" class="icon" style="" viewBox="0 0 2076 1024" version="1.1" xmlns="http://www.w3.org/2000/svg" p-id="12630" xmlns:xlink="http://www.w3.org/1999/xlink" width="405.46875" height="200"><defs><style type="text/css"></style></defs><path d="M998.680851 640.22616c70.134614-45.451208 116.629454-124.398715 116.629454-214.022403 0-140.544036-114.315037-254.857485-254.857485-254.857485-29.262998 0-57.383877 4.970357-83.581106 14.091415a33.698037 33.698037 0 0 0-2.296944-39.067102c-48.690121-59.934978-120.835752-94.341477-197.977156-94.341477-140.536094 0-254.857485 114.327745-254.857485 254.859073 0 86.98681 44.123238 167.168567 116.678697 214.058938-66.033156 26.086035-122.915074 70.06631-165.362464 127.915612-47.72909 64.935516-72.835032 141.790994-72.835032 222.257089 0.074659 18.540751 15.171582 33.507419 33.712333 33.43276 18.540751-0.081013 33.512184-15.171582 33.43276-33.712332 0-170.507554 138.736345-309.102524 309.107289-309.102524 18.453384 0 33.575724-15.127105 33.575724-33.860062-0.019062-18.534397-15.041327-33.556662-33.575724-33.575723-103.362461 0-187.564663-84.071947-187.564663-187.564664 0-103.356107 84.071947-187.564663 187.564663-187.564663 56.888271 0 110.008665 25.383927 145.81144 69.508753a33.513773 33.513773 0 0 0 19.787708 11.869131C661.00473 243.25522 605.612808 328.356502 605.612808 426.191049c0 89.712643 46.580618 168.733221 116.840723 214.160601C583.132625 695.575193 484.35452 831.676248 484.35452 990.424276c0.019062 18.540751 15.041327 33.563016 33.575724 33.575724 18.534397-0.012708 33.556662-15.034973 33.575723-33.575724 0-170.507554 138.729991-309.102524 309.100936-309.102523 170.364591 0 309.102524 138.731579 309.102523 309.102523 0.012708 18.540751 15.034973 33.563016 33.575724 33.575724 18.44703 0 33.575724-14.98573 33.860062-33.575724-0.023827-158.859222-98.957603-295.060351-238.464361-350.198116zM860.45282 238.639094c103.49907 0 187.571017 84.065593 187.571017 187.564663 0 103.356107-84.078301 187.564663-187.571017 187.564663-103.351341 0-187.564663-84.071947-187.564663-187.564663 0-103.362461 84.070359-187.564663 187.564663-187.564663z m0 0" fill="" p-id="12631"></path><path d="M1455.356439 0.006354H848.246932c-18.534397 0.012708-33.556662 15.034973-33.575724 33.575723v96.276247c0.019062 18.540751 15.041327 33.563016 33.575724 33.575724 18.534397-0.012708 33.556662-15.034973 33.575723-33.575724v-62.706877h539.673723v363.905119h-127.909258a33.682152 33.682152 0 0 0-24.13697 10.26953l-55.082168 57.010584 4.0268-27.87943a33.404168 33.404168 0 0 0-8.053599-26.910457 33.302505 33.302505 0 0 0-25.242552-11.516488l-28.85317 0.285927a33.037228 33.037228 0 0 0-23.728729 9.983603c-6.353924 6.298327-9.866056 14.915837-9.710385 23.863751 0.136609 14.98573 10.13292 27.606212 23.722376 31.90623l-13.316237 93.515466a33.469295 33.469295 0 0 0 7.90587 26.773848 33.321567 33.321567 0 0 0 25.383927 11.659451c9.016218 0 17.765572-3.747227 24.143323-10.26953l117.231489-121.251934h147.480933c18.534397-0.019062 33.556662-15.047681 33.569369-33.582077V33.582077c-0.014296-18.540751-15.036561-33.563016-33.570958-33.575723z" fill="" p-id="12632"></path></svg>