<?xml version="1.0" standalone="no"?><!DOCTYPE svg PUBLIC "-//W3C//DTD SVG 1.1//EN" "http://www.w3.org/Graphics/SVG/1.1/DTD/svg11.dtd"><svg t="1558095018633" class="icon" style="" viewBox="0 0 1072 1024" version="1.1" xmlns="http://www.w3.org/2000/svg" p-id="16314" xmlns:xlink="http://www.w3.org/1999/xlink" width="209.375" height="200"><defs><style type="text/css"></style></defs><path d="M445.878857 506.782476c151.503238 0 275.260952-113.810286 275.260953-253.366857C721.13981 113.810286 597.382095 0 445.878857 0 294.375619 0 170.617905 113.810286 170.617905 253.415619c0 139.556571 123.757714 253.366857 275.260952 253.366857" p-id="16315"></path><path d="M885.126095 878.592C786.529524 953.977905 629.028571 1002.934857 451.779048 1002.934857 265.947429 1002.934857 101.13219 948.662857 3.998476 866.645333A263.363048 263.363048 0 0 1 0 820.955429C0 642.974476 199.728762 498.834286 445.878857 498.834286s445.878857 144.237714 445.878857 322.121143c0 19.992381-1.950476 39.15581-6.631619 57.636571" p-id="16316"></path><path d="M1016.783238 348.013714h-154.770286a33.158095 33.158095 0 0 1 0-66.218666h154.770286a33.109333 33.109333 0 1 1 0 66.218666m0 230.204953H812.373333a33.158095 33.158095 0 0 1 0-66.267429h204.409905a33.060571 33.060571 0 1 1 0 66.267429m0-455.094857H814.32381a33.060571 33.060571 0 1 1 0-66.218667h202.361904a33.060571 33.060571 0 0 1 0.097524 66.218667" p-id="16317"></path><path d="M391.606857 521.99619c44.958476 7.94819 73.48419 4.583619 117.808762 0 6.631619-1.316571 15.847619 7.94819 12.580571 14.482286l-38.42438 77.531429c-3.267048 6.534095-5.315048 15.11619-11.946667 15.11619h-40.374857c-6.631619 0-9.264762-8.582095-12.580572-15.11619l-39.009524-77.531429c-3.267048-6.534095 5.36381-15.798857 11.946667-14.482286" p-id="16318"></path><path d="M390.290286 524.190476c-2.29181 0-5.071238 1.657905-7.021715 4.193524-1.950476 2.535619-2.438095 5.168762-1.462857 7.119238l39.009524 77.336381c0.682667 1.121524 1.121524 2.29181 1.755429 3.559619 2.876952 6.241524 5.071238 10.435048 8.777143 10.435048h40.374857c3.510857 0 5.315048-3.608381 7.899428-9.508572a45.007238 45.007238 0 0 1 2.048-4.388571l38.424381-77.433905c0.926476-1.80419 0.341333-4.291048-1.462857-6.729143-2.29181-3.072-6.192762-5.217524-8.582095-4.486095l-3.413334 0.390095c-42.76419 4.437333-71.046095 7.460571-115.126857-0.390095-0.585143-0.146286-0.828952-0.146286-1.219047-0.146286m81.334857 107.324953h-40.374857c-7.021714 0-10.288762-6.972952-13.019429-13.165715-0.536381-1.121524-1.121524-2.29181-1.560381-3.413333l-39.058286-77.336381c-1.80419-3.608381-1.072762-8.094476 1.950477-12.092952 2.730667-3.608381 7.606857-6.729143 12.434285-5.802667 43.593143 7.801905 71.533714 4.87619 113.956572 0.390095l3.218286-0.390095c4.144762-0.926476 9.557333 1.706667 12.970666 6.339048 2.876952 3.900952 3.608381 8.192 1.901714 11.702857l-38.375619 77.336381c-0.78019 1.365333-1.365333 2.779429-1.950476 4.193524-2.438095 5.705143-5.36381 12.239238-12.092952 12.239238M422.083048 644.632381h58.855619c1.316571 0 1.950476 1.950476 2.633143 3.998476l43.641904 226.206476a8.045714 8.045714 0 0 1-1.950476 7.216762l-70.070857 103.228953c-2.633143 3.267048-5.90019 0.585143-6.680381-0.585143l-64.853333-104.545524c-1.316571-1.316571-3.267048-1.950476-2.633143-3.998476l38.375619-227.523048c0-2.048 1.365333-3.998476 2.681905-3.998476" p-id="16319"></path><path d="M422.278095 646.92419a3.072 3.072 0 0 0-0.536381 1.706667l-38.424381 228.010667c0 0.24381 0.341333 0.633905 0.682667 0.877714a7.801905 7.801905 0 0 1 1.365333 1.072762l65.145905 104.984381a2.438095 2.438095 0 0 0 1.657905 1.219048c0.146286 0 0.633905 0 1.219047-0.731429l70.070858-103.033905a6.046476 6.046476 0 0 0 1.560381-5.558857l-43.593143-226.352762c-0.24381-0.487619-0.585143-1.560381-0.877715-2.048H422.278095v-0.146286z m29.891048 342.308572H451.535238a7.314286 7.314286 0 0 1-5.217524-3.462095l-64.658285-104.399238c0 0.146286-0.195048-0.097524-0.585143-0.341334-1.219048-1.024-3.413333-2.584381-2.29181-5.558857l38.326857-227.230476c0-2.486857 2.048-5.90019 4.876191-5.900191h58.904381c3.023238 0 4.096 3.31581 4.827428 5.607619l43.739429 226.54781a10.727619 10.727619 0 0 1-2.633143 9.411048l-69.875809 102.838857a6.436571 6.436571 0 0 1-4.876191 2.535619z" p-id="16320"></path></svg>