<?xml version="1.0" standalone="no"?><!DOCTYPE svg PUBLIC "-//W3C//DTD SVG 1.1//EN" "http://www.w3.org/Graphics/SVG/1.1/DTD/svg11.dtd"><svg t="1558082057296" class="icon" style="" viewBox="0 0 1024 1024" version="1.1" xmlns="http://www.w3.org/2000/svg" p-id="2671" xmlns:xlink="http://www.w3.org/1999/xlink" width="200" height="200"><defs><style type="text/css"></style></defs><path d="M614.4 62.8c-140.7 0-255.1 114.4-255.1 255.1 0 97.2 54.7 181.8 134.9 224.9-167 51.4-288.7 207.2-288.7 390.8 0 13.5 10.9 24.3 24.3 24.3 13.5 0 24.3-10.9 24.3-24.3 0-198.6 161.6-360.1 358.4-360.3 2.7 0.3 5.3 0.1 7.8-0.5 137.8-3.2 249-116.3 249-254.9 0.2-140.7-114.3-255.1-254.9-255.1z m0 461.4c-113.8 0-206.4-92.6-206.4-206.3 0-113.8 92.6-206.4 206.4-206.4 113.8 0 206.3 92.6 206.3 206.4 0.1 113.7-92.5 206.3-206.3 206.3z m-257.6 6.2v-0.1c0-13.5-10.9-24.4-24.3-24.4-88.4 0-160.2-76.8-160.2-171.2 0-94.4 71.9-171.2 160.2-171.2 13.5 0 24.3-10.9 24.3-24.3s-10.9-24.3-24.3-24.3c-115.2 0-208.9 98.7-208.9 219.9 0 80.7 41.6 151.4 103.4 189.6C95.4 571 0.4 702.2 0.4 856.4c0 13.4 10.9 24.3 24.3 24.3 13.5 0 24.3-10.9 24.3-24.3 0-166.3 127.1-301.5 283.3-301.5 13.6-0.1 24.4-11 24.5-24.5z m0 0" p-id="2672"></path><path d="M873.7 938V638.6c0-11.8-9.6-21.4-21.4-21.4-11.8 0-21.4 9.6-21.4 21.4V938c0 11.8 9.6 21.4 21.4 21.4 11.8 0 21.4-9.6 21.4-21.4z m0 0" p-id="2673"></path><path d="M1002.1 766.9H702.6c-11.8 0-21.4 9.6-21.4 21.4 0 11.8 9.6 21.4 21.4 21.4H1002c11.8 0 21.4-9.6 21.4-21.4 0-11.8-9.6-21.4-21.3-21.4z m0 0" p-id="2674"></path></svg>