<?xml version="1.0" standalone="no"?><!DOCTYPE svg PUBLIC "-//W3C//DTD SVG 1.1//EN" "http://www.w3.org/Graphics/SVG/1.1/DTD/svg11.dtd"><svg t="1558094739320" class="icon" style="" viewBox="0 0 1024 1024" version="1.1" xmlns="http://www.w3.org/2000/svg" p-id="12506" xmlns:xlink="http://www.w3.org/1999/xlink" width="200" height="200"><defs><style type="text/css"></style></defs><path d="M578 512l164.6-164.6c18.2-18.2 18.2-47.6 0-65.8-18.2-18.2-47.6-18.2-65.8 0L512.2 446.2 347.6 281.6c-18.2-18.2-47.6-18.2-65.8 0-18.2 18.2-18.2 47.6 0 65.8L446.3 512 281.8 676.6c-18.2 18.2-18.2 47.6 0 65.8 18.2 18.2 47.6 18.2 65.8 0l164.6-164.6 164.6 164.6c18.2 18.2 47.6 18.2 65.8 0 18.2-18.2 18.2-47.6 0-65.8L578 512z m-65.8 512C229.4 1024 0.2 794.8 0.2 512S229.4 0 512.2 0s512 229.2 512 512-229.3 512-512 512z" p-id="12507"></path></svg>